<svg width="36" height="36" viewBox="0 0 36 36" fill="none" xmlns="http://www.w3.org/2000/svg">
<path fill-rule="evenodd" clip-rule="evenodd" d="M28.722 7.875H8.0025L6.2325 4.7025C6.13499 4.52747 5.99251 4.38166 5.81979 4.28013C5.64706 4.17861 5.45035 4.12505 5.25 4.125H3C2.70163 4.125 2.41548 4.24353 2.2045 4.4545C1.99353 4.66548 1.875 4.95163 1.875 5.25C1.875 5.54837 1.99353 5.83452 2.2045 6.0455C2.41548 6.25647 2.70163 6.375 3 6.375H4.59L6.336 9.507L10.365 18.42L10.3695 18.429L10.725 19.2135L6.6795 23.529C6.53692 23.6811 6.43943 23.8699 6.3979 24.0742C6.35638 24.2786 6.37245 24.4904 6.44433 24.6861C6.51621 24.8818 6.64106 25.0537 6.80496 25.1826C6.96886 25.3115 7.16535 25.3923 7.3725 25.416L11.0595 25.8375C15.6715 26.3652 20.3285 26.3652 24.9405 25.8375L28.6275 25.4175C28.9241 25.3837 29.1951 25.2334 29.3809 24.9998C29.5667 24.7662 29.6521 24.4683 29.6183 24.1718C29.5844 23.8752 29.4342 23.6042 29.2006 23.4184C28.9669 23.2326 28.6691 23.1472 28.3725 23.181L24.6855 23.601C20.2429 24.1081 15.7571 24.1081 11.3145 23.601L9.852 23.436L12.822 20.268L12.9015 20.172L14.0295 20.319C15.612 20.526 17.2125 20.5665 18.8025 20.439C20.639 20.2929 22.4284 19.7846 24.0673 18.9432C25.7063 18.1018 27.1624 16.9441 28.3515 15.537L29.22 14.5095L29.2995 14.4015L30.9165 11.9385C32.0625 10.1925 30.81 7.875 28.722 7.875ZM12.984 17.916C12.862 17.9006 12.7459 17.8542 12.6469 17.7812C12.5479 17.7082 12.4693 17.611 12.4185 17.499L12.4155 17.4945L9.0855 10.125H28.7205C28.7882 10.1248 28.8548 10.1429 28.913 10.1774C28.9713 10.2119 29.0191 10.2616 29.0514 10.3211C29.0837 10.3807 29.0993 10.4478 29.0965 10.5155C29.0937 10.5832 29.0726 10.6488 29.0355 10.7055L27.456 13.1115L26.6325 14.0865C25.6354 15.2665 24.4145 16.2374 23.0402 16.943C21.6659 17.6487 20.1655 18.0752 18.6255 18.198C17.19 18.312 15.747 18.276 14.3205 18.09L12.984 17.916Z" fill="#FFE5D9"/>
<path d="M9.75 27.75C9.15326 27.75 8.58097 27.9871 8.15901 28.409C7.73705 28.831 7.5 29.4033 7.5 30C7.5 30.5967 7.73705 31.169 8.15901 31.591C8.58097 32.0129 9.15326 32.25 9.75 32.25C10.3467 32.25 10.919 32.0129 11.341 31.591C11.7629 31.169 12 30.5967 12 30C12 29.4033 11.7629 28.831 11.341 28.409C10.919 27.9871 10.3467 27.75 9.75 27.75ZM24 30C24 29.4033 24.2371 28.831 24.659 28.409C25.081 27.9871 25.6533 27.75 26.25 27.75C26.8467 27.75 27.419 27.9871 27.841 28.409C28.2629 28.831 28.5 29.4033 28.5 30C28.5 30.5967 28.2629 31.169 27.841 31.591C27.419 32.0129 26.8467 32.25 26.25 32.25C25.6533 32.25 25.081 32.0129 24.659 31.591C24.2371 31.169 24 30.5967 24 30Z" fill="#FFE5D9"/>
</svg>
