<svg width="12" height="12" viewBox="0 0 12 12" fill="none" xmlns="http://www.w3.org/2000/svg">
<g clip-path="url(#clip0_88_978)">
<path d="M0.422808 5.47125C0.422808 5.47125 0.153746 7.43625 1.2975 9.16875C2.235 10.5881 3.7275 11.5416 5.80312 11.5856C7.76812 11.6269 9.21562 10.9444 10.3247 9.58968C11.8172 7.76625 11.5856 5.75343 11.5856 5.49843C11.5856 5.06156 10.7775 7.46906 10.7775 7.46906L8.50125 10.4316L5.16468 11.04C5.16468 11.04 2.49843 9.87093 2.4825 9.80812C2.46656 9.74531 0.422808 5.47125 0.422808 5.47125Z" fill="#FFE5D9"/>
<path d="M6.07593 0.408751C2.46656 0.387188 0.318743 3.26719 0.422806 5.895C0.526868 8.52375 2.57156 11.2978 6.01312 11.2566C9.45468 11.2144 11.5097 8.34563 11.5875 5.81625C11.6653 3.28688 9.49687 0.430313 6.07593 0.408751ZM6.11812 10.2966C4.09499 10.38 1.54968 8.77406 1.61249 6.01969C1.67531 3.26625 3.76218 1.71469 5.88937 1.65938C7.49531 1.61719 10.3537 2.76469 10.3537 6.08156C10.3528 8.75438 8.01749 10.2188 6.11812 10.2966Z" fill="#FFE5D9"/>
<path d="M0.946877 4.2122C0.909377 4.37064 0.889689 4.53939 1.04531 4.59658C1.20094 4.65377 1.2825 4.42502 1.33125 4.27783C1.38 4.13064 1.96594 2.91095 2.85656 2.18345C3.825 1.3922 5.03156 1.12033 5.20313 1.07158C5.37469 1.02283 5.48438 0.904703 5.45625 0.801578C5.42344 0.678766 5.24531 0.683453 5.10469 0.703141C4.98656 0.720953 3.78469 0.834391 2.54063 1.8497C1.33875 2.83033 0.987189 4.04064 0.946877 4.2122Z" fill="#FFCAD4"/>
<path d="M4.51407 5.60063C4.53563 5.43844 4.70532 4.6875 5.1 4.35656C5.93157 3.65813 6.80063 4.07156 7.06032 4.53656C7.29938 4.96406 7.15407 5.35688 7.54407 5.45438C7.93407 5.55188 8.35125 5.47969 8.47501 5.2275C8.63813 4.89469 8.46094 4.37063 8.38594 4.28344C8.31 4.19719 6.12657 3.26813 6.12657 3.26813C6.12657 3.26813 4.45969 4.15594 4.45969 4.18781C4.45969 4.21969 4.32938 5.6925 4.32938 5.6925L4.51407 5.60063ZM3.11438 7.01344C3.11438 7.01344 3.21563 7.75406 3.83625 8.49656C4.32657 9.08344 5.145 9.37125 6.01782 9.36188C8.10001 9.33844 8.54063 7.7325 8.54063 7.52625C8.54063 7.32 7.12219 8.56031 7.12219 8.56031L5.83407 8.355L3.11438 7.01344Z" fill="#FFE5D9"/>
<path d="M5.92031 2.69437C4.38374 2.6878 2.89124 3.75562 3.01968 6.27655C3.16031 9.03655 5.37937 9.12374 5.96343 9.13405C7.19718 9.15562 8.40937 8.35499 8.57156 7.44562C8.70374 6.7078 8.29031 6.62343 7.95468 6.62343C7.61906 6.62343 7.42406 6.66655 7.22906 7.09968C7.03499 7.5328 6.67781 8.06249 5.98499 8.04093C5.29218 8.01937 4.50187 7.59749 4.51312 5.87624C4.52437 4.15499 5.42156 3.80624 6.06749 3.81655C6.75749 3.8278 7.04343 4.08187 7.23281 4.35937C7.42406 4.63968 7.47374 5.02499 7.75031 5.08218C8.00999 5.13655 8.52843 5.09624 8.53874 4.91249C8.54906 4.72874 8.31281 2.70562 5.92031 2.69437Z" fill="#FFE5D9"/>
<path d="M5.12156 3.29625C5.30718 3.46969 4.84499 3.62063 4.44374 4.03125C4.04249 4.44188 3.88124 4.9425 3.71812 4.87125C3.47999 4.76625 3.59437 4.15594 4.08093 3.66844C4.56749 3.18094 4.97812 3.16313 5.12156 3.29625ZM7.13718 7.95938C7.29749 8.07188 7.70062 7.73063 7.86374 7.51031C8.02687 7.29 8.24718 6.98813 7.99406 6.86531C7.74093 6.7425 7.57781 6.97125 7.43062 7.29C7.31531 7.53844 6.91593 7.80375 7.13718 7.95938Z" fill="#FFCAD4"/>
</g>
<defs>
<clipPath id="clip0_88_978">
<rect width="12" height="12" fill="white"/>
</clipPath>
</defs>
</svg>
