<svg width="25" height="23" viewBox="0 0 25 23" fill="none" xmlns="http://www.w3.org/2000/svg">
<path d="M0 1.06881C0 0.476512 0.468382 0 1.05058 0H3.04229C4.00532 0 4.85891 0.570033 5.25726 1.42508H23.2484C24.3996 1.42508 25.2401 2.53843 24.938 3.66958L23.1433 10.4521C22.7712 11.8504 21.5237 12.8257 20.101 12.8257H7.47222L7.7086 14.0949C7.8049 14.5982 8.23826 14.9634 8.74166 14.9634H21.3617C21.9439 14.9634 22.4123 15.4399 22.4123 16.0322C22.4123 16.6245 21.9439 17.101 21.3617 17.101H8.74166C7.22708 17.101 5.927 16.0054 5.64684 14.4957L3.38811 2.42709C3.35746 2.25786 3.21301 2.13762 3.04229 2.13762H1.05058C0.468382 2.13762 0 1.66111 0 1.06881ZM5.60307 20.6637C5.60307 20.383 5.65742 20.105 5.76301 19.8456C5.8686 19.5863 6.02337 19.3506 6.21848 19.1522C6.41359 18.9537 6.64522 18.7962 6.90015 18.6888C7.15507 18.5813 7.42829 18.5261 7.70422 18.5261C7.98015 18.5261 8.25337 18.5813 8.5083 18.6888C8.76322 18.7962 8.99485 18.9537 9.18996 19.1522C9.38507 19.3506 9.53984 19.5863 9.64543 19.8456C9.75102 20.105 9.80537 20.383 9.80537 20.6637C9.80537 20.9444 9.75102 21.2224 9.64543 21.4817C9.53984 21.7411 9.38507 21.9767 9.18996 22.1752C8.99485 22.3737 8.76322 22.5312 8.5083 22.6386C8.25337 22.746 7.98015 22.8013 7.70422 22.8013C7.42829 22.8013 7.15507 22.746 6.90015 22.6386C6.64522 22.5312 6.41359 22.3737 6.21848 22.1752C6.02337 21.9767 5.8686 21.7411 5.76301 21.4817C5.65742 21.2224 5.60307 20.9444 5.60307 20.6637ZM20.3111 18.5261C20.8684 18.5261 21.4028 18.7513 21.7969 19.1522C22.1909 19.553 22.4123 20.0967 22.4123 20.6637C22.4123 21.2306 22.1909 21.7743 21.7969 22.1752C21.4028 22.5761 20.8684 22.8013 20.3111 22.8013C19.7539 22.8013 19.2194 22.5761 18.8254 22.1752C18.4313 21.7743 18.21 21.2306 18.21 20.6637C18.21 20.0967 18.4313 19.553 18.8254 19.1522C19.2194 18.7513 19.7539 18.5261 20.3111 18.5261Z" fill="#FFE5D9"/>
</svg>
